<svg width="512" height="512" viewBox="0 0 512 512" fill="none" xmlns="http://www.w3.org/2000/svg">
  <rect width="512" height="512" rx="96" fill="#5865F2"/>
  <path d="M167 166C194 146 226 138 256 138C286 138 318 146 345 166C365 203 371 241 367 293C339 314 311 324 281 326L269 299C284 296 298 291 311 284C307 281 303 277 300 274C272 286 239 286 212 274C208 278 204 281 200 284C213 291 227 296 243 299L231 326C201 324 173 314 145 293C141 241 147 203 167 166Z" fill="white"/>
  <path d="M213 260C226 260 236 248 236 233C236 218 226 206 213 206C200 206 190 218 190 233C190 248 200 260 213 260Z" fill="#5865F2"/>
  <path d="M299 260C312 260 322 248 322 233C322 218 312 206 299 206C286 206 276 218 276 233C276 248 286 260 299 260Z" fill="#5865F2"/>
  <path d="M352 352H160" stroke="white" stroke-width="34" stroke-linecap="round"/>
  <path d="M300 304L352 352L300 400" stroke="white" stroke-width="34" stroke-linecap="round" stroke-linejoin="round"/>
</svg>
